<?xml version="1.0" encoding="UTF-8" standalone="no"?>
<!-- Created with Inkscape (http://www.inkscape.org/) -->

<svg
   version="1.1"
   id="svg59"
   width="240"
   height="210"
   viewBox="0 0 240 210"
   xmlns="http://www.w3.org/2000/svg"
   xmlns:svg="http://www.w3.org/2000/svg">
  <defs
     id="defs63" />
  <g
     id="g65">
    <path
       style="fill:#000000;stroke-width:0.872578"
       d="M 184.17094,183.78467 167.86501,169.38713 H 113.62323 59.381445 l 10.00618,-10.03464 10.006183,-10.03465 55.859222,-0.005 c 37.67033,-0.003 56.99574,-0.3153 59.34953,-0.95826 4.7154,-1.28804 8.81766,-4.53933 10.91528,-8.65101 1.65999,-3.25347 1.7371,-5.18873 1.7371,-43.589694 V 55.928575 l 3.27217,1.343929 c 4.94544,2.031166 7.37278,4.097542 10.25279,8.728123 l 2.61774,4.208882 0.27611,38.899731 c 0.15186,21.39485 0.0257,40.95865 -0.28022,43.47509 -0.79828,6.56511 -4.81345,12.22255 -10.84144,15.27579 -2.60563,1.31977 -5.84507,2.39959 -7.19876,2.39959 -2.89414,0 -2.89848,0.0423 -1.60707,15.65624 0.83374,10.08031 0.44727,12.26625 -2.16864,12.26625 -0.60541,0 -8.43842,-6.47889 -17.40668,-14.39753 z M 33.949885,160.44321 c 0.323089,-4.91916 0.823967,-11.93464 1.113062,-15.58997 l 0.525628,-6.64605 -3.975787,-0.59621 c -4.664782,-0.69953 -10.158345,-4.1435 -13.21235,-8.28298 -3.871234,-5.24716 -4.124037,-8.91248 -3.827093,-55.488157 0.272672,-42.768609 0.315294,-43.697721 2.161544,-47.11921 2.203786,-4.084078 5.621946,-7.44023 9.896415,-9.716887 2.912947,-1.551487 6.58411,-1.626627 79.473146,-1.626627 h 76.41912 l 4.26735,2.638378 c 2.34705,1.451108 5.45748,4.331372 6.91208,6.400586 l 2.64472,3.762209 0.26478,46.390381 c 0.17073,29.913337 -0.053,47.475117 -0.62977,49.444407 -1.33503,4.55785 -5.93304,9.56322 -10.91669,11.88384 l -4.42472,2.06035 -54.97242,0.0333 -54.972408,0.0333 -18.257918,15.68156 c -10.041854,8.62493 -18.442013,15.68163 -18.66702,15.68163 -0.225007,0 -0.144758,-4.02476 0.178331,-8.94392 z m 21.476492,-18.106 13.21111,-11.34351 h 56.091023 56.09101 l 2.96493,-1.97034 c 1.6307,-1.08369 3.8484,-3.71918 4.92821,-5.85665 1.95656,-3.87294 1.9633,-4.03349 1.9633,-46.709133 0,-42.688692 -0.006,-42.834864 -1.9633,-46.665093 -1.07981,-2.113244 -3.07177,-4.650571 -4.42657,-5.638502 -2.43542,-1.77593 -3.31426,-1.798866 -77.72758,-2.028517 l -75.264293,-0.232278 -2.965126,1.998199 c -1.630818,1.099008 -3.857954,3.323066 -4.949189,4.942351 l -1.984065,2.944153 v 44.51392 44.51391 l 2.151685,3.67159 c 2.74836,4.68972 6.555224,6.51639 13.580424,6.51639 h 5.43372 l -0.627361,11.34351 c -0.345047,6.23894 -0.422986,11.34352 -0.173198,11.34352 0.24979,0 6.399161,-5.10458 13.66527,-11.34352 z m -2.391914,-35.51792 c -3.103465,-0.5985 -4.588709,-3.58192 -4.588709,-9.217368 0,-6.678799 2.351275,-9.364542 8.19833,-9.364542 4.272737,0 5.242204,0.730161 4.237598,3.191585 -0.432097,1.05869 -1.549933,1.607594 -3.27386,1.607594 -2.542691,0 -2.625295,0.131323 -2.881479,4.581035 l -0.263745,4.581036 h 3.535912 c 3.147765,0 3.535913,0.22922 3.535913,2.08809 0,2.91469 -2.561333,3.67784 -8.49996,2.53257 z m 14.625203,-0.45894 c -4.039094,-2.13147 -5.456368,-7.794508 -3.415728,-13.648294 1.203038,-3.451037 3.065252,-4.474676 8.140347,-4.474676 2.782424,0 4.495608,0.511648 5.680447,1.696484 3.3381,3.338099 3.396318,12.289216 0.09933,15.272946 -2.18538,1.97774 -7.778639,2.59196 -10.5044,1.15354 z m 6.963427,-8.960901 c 0,-4.922797 -0.554,-5.536333 -3.855233,-4.269533 -0.998378,0.383114 -1.380235,1.710864 -1.380235,4.799179 0,4.162205 0.06579,4.269535 2.617734,4.269535 2.591295,0 2.617734,-0.0485 2.617734,-4.799181 z m 29.885797,9.418841 c -1.97365,-0.38015 -2.48623,-1.69008 -1.29551,-3.3108 0.35259,-0.47991 2.30988,-0.87257 4.34953,-0.87257 4.74423,0 4.87985,-1.52906 0.21815,-2.45974 -4.054,-0.809359 -5.69875,-3.479221 -4.7643,-7.733754 0.7195,-3.27581 2.98227,-4.348931 8.49889,-4.030595 3.9641,0.228746 4.59106,0.517491 4.83373,2.226139 0.25488,1.794666 -0.0699,1.9633 -3.78117,1.9633 -2.85998,0 -3.95266,0.322392 -3.69684,1.090723 0.19974,0.599897 1.11595,1.204175 2.03602,1.342836 4.53814,0.683953 5.47825,1.204411 6.23384,3.451081 2.25448,6.70347 -3.02215,10.18438 -12.63234,8.33338 z m 19.01626,-0.44576 c -2.65267,-1.403 -3.32991,-3.72717 -3.44102,-11.808959 l -0.087,-6.326191 h 3.05402 3.05403 v 6.980624 c 0,6.864286 0.0364,6.980626 2.18144,6.980626 2.14509,0 2.18145,-0.11634 2.18145,-6.980626 V 88.23738 h 2.61773 2.61773 v 7.686426 c 0,4.962064 -0.4054,8.240844 -1.14378,9.250644 -1.47002,2.01038 -8.13134,2.73362 -11.03461,1.19808 z M 83.348872,97.399449 V 88.23738 h 2.605352 c 2.094432,0 3.078351,0.71756 5.017324,3.65906 l 2.411971,3.65906 0.270822,-3.71042 c 0.262716,-3.599233 0.354223,-3.702338 3.054023,-3.440912 l 2.783201,0.269501 0.248667,8.943925 0.248676,8.943926 h -2.945195 c -2.406046,0 -3.370027,-0.5971 -5.26599,-3.2618 l -2.320805,-3.2618 v 3.2618 c 0,3.14605 -0.108374,3.2618 -3.054023,3.2618 h -3.054023 z m 55.844988,0 V 88.23738 h 2.61774 2.61773 v 6.980624 6.980626 h 3.05402 c 2.67591,0 3.05403,0.27008 3.05403,2.18144 0,2.10314 -0.2036,2.18145 -5.67176,2.18145 h -5.67176 z m 14.11046,2.652551 c 0.28149,-6.382621 0.24455,-6.514459 -1.89437,-6.76248 -1.67769,-0.19455 -2.18144,-0.756709 -2.18144,-2.434406 0,-2.130117 0.16938,-2.187409 7.19877,-2.434879 l 7.19877,-0.253434 v 2.653026 c 0,2.248171 -0.33289,2.653021 -2.18145,2.653021 -2.13296,0 -2.18144,0.145433 -2.18144,6.544332 v 6.54434 h -3.12296 -3.12297 z M 50.19091,62.06004 V 45.481059 h 11.00058 c 9.672598,0 10.936641,0.16662 10.470937,1.380232 -0.29131,0.759129 -0.529646,2.5261 -0.529646,3.926601 0,2.53051 -0.03263,2.546369 -5.235468,2.546369 h -5.235468 v 2.617734 c 0,2.559561 0.09695,2.617734 4.36289,2.617734 h 4.36289 v 3.490311 3.490312 h -4.36289 -4.36289 v 6.544335 6.544335 H 55.426377 50.19091 Z M 76.077392,78.057303 C 75.757444,77.737358 75.495671,70.276817 75.495671,61.478321 V 45.481059 h 10.514268 c 14.010901,0 16.929121,1.459653 17.445061,8.72578 0.43014,6.05766 -0.0727,8.670166 -2.12886,11.060588 l -2.092029,2.432124 2.528319,5.008564 c 1.39057,2.754709 2.52831,5.21609 2.52831,5.469735 0,0.253644 -2.48799,0.461172 -5.528895,0.461172 h -5.528889 l -2.258991,-5.235468 c -1.392102,-3.22636 -2.786334,-5.235468 -3.633171,-5.235468 -1.097842,0 -1.374188,1.052836 -1.374188,5.235468 v 5.235468 H 81.31286 c -2.559568,0 -4.915528,-0.261774 -5.235468,-0.581719 z M 91.546446,60.05371 c 1.031535,-0.754277 1.452432,-1.995526 1.257498,-3.708457 -0.25974,-2.282424 -0.664459,-2.605447 -3.56517,-2.845521 -3.26729,-0.270414 -3.272168,-0.265753 -3.272168,3.126737 0,1.868656 0.261774,3.65933 0.581722,3.979275 0.935796,0.935796 3.324138,0.672007 4.998118,-0.552034 z m 17.979764,2.031657 V 45.481059 h 11.45259 11.45258 l -0.54536,2.726806 c -0.29995,1.499744 -0.54536,3.266714 -0.54536,3.926601 0,0.904815 -1.51596,1.199795 -6.166,1.199795 h -6.166 l 0.2761,2.399589 c 0.26461,2.299685 0.50315,2.410405 5.72971,2.659371 l 5.45361,0.259782 v 3.448674 3.448675 h -5.72971 -5.72971 l 0.2761,2.39959 c 0.27197,2.363748 0.37782,2.403408 7.08691,2.655308 l 6.81082,0.255719 -0.26649,3.670882 -0.26647,3.670882 -11.56166,0.243471 -11.56166,0.243471 z m 28.50422,15.971936 c -0.31995,-0.319945 -0.58172,-7.780486 -0.58172,-16.578982 V 45.481059 h 11.88157 11.88157 l -0.52614,1.9633 c -0.28938,1.079816 -0.53151,2.846786 -0.53807,3.926601 -0.0112,1.849668 -0.36878,1.963301 -6.17791,1.963301 h -6.166 l 0.2761,2.399589 c 0.26461,2.299685 0.50315,2.410405 5.72971,2.659371 l 5.45362,0.259782 v 3.448674 3.448675 h -5.72972 -5.72971 l 0.2761,2.39959 c 0.26972,2.34413 0.42231,2.405514 6.60229,2.655961 l 6.32619,0.256372 v 3.888374 3.888373 h -11.19808 c -6.15895,0 -11.45986,-0.261774 -11.7798,-0.581719 z"
       id="path177" />
  </g>
</svg>
